<mxfile host="app.diagrams.net" modified="2021-05-16T09:13:26.927Z" agent="5.0 (Macintosh; Intel Mac OS X 10_14_6) AppleWebKit/537.36 (KHTML, like Gecko) Chrome/90.0.4430.212 Safari/537.36" etag="QpYI6r5A-zHhNSumk6om" version="14.6.11" type="github">
  <diagram id="GOmEl7LJMIvYEHOZRHSB" name="Page-1">
    <mxGraphModel dx="946" dy="454" grid="1" gridSize="10" guides="1" tooltips="1" connect="1" arrows="1" fold="1" page="1" pageScale="1" pageWidth="827" pageHeight="1169" math="0" shadow="0">
      <root>
        <mxCell id="0" />
        <mxCell id="1" parent="0" />
        <mxCell id="MbbQXRMOaAWuGw-apZug-8" value="" style="edgeStyle=orthogonalEdgeStyle;rounded=0;orthogonalLoop=1;jettySize=auto;html=1;" edge="1" parent="1" source="MbbQXRMOaAWuGw-apZug-6" target="MbbQXRMOaAWuGw-apZug-7">
          <mxGeometry relative="1" as="geometry" />
        </mxCell>
        <mxCell id="MbbQXRMOaAWuGw-apZug-6" value="魔方前端（c端）" style="rounded=0;whiteSpace=wrap;html=1;" vertex="1" parent="1">
          <mxGeometry x="350" y="250" width="120" height="60" as="geometry" />
        </mxCell>
        <mxCell id="MbbQXRMOaAWuGw-apZug-10" value="" style="edgeStyle=orthogonalEdgeStyle;rounded=0;orthogonalLoop=1;jettySize=auto;html=1;" edge="1" parent="1" source="MbbQXRMOaAWuGw-apZug-7" target="MbbQXRMOaAWuGw-apZug-9">
          <mxGeometry relative="1" as="geometry" />
        </mxCell>
        <mxCell id="MbbQXRMOaAWuGw-apZug-7" value="ad-biz-frozen-api" style="whiteSpace=wrap;html=1;rounded=0;fillColor=#FFCCE6;" vertex="1" parent="1">
          <mxGeometry x="350" y="390" width="120" height="60" as="geometry" />
        </mxCell>
        <mxCell id="MbbQXRMOaAWuGw-apZug-9" value="ad-biz-alita-api" style="whiteSpace=wrap;html=1;rounded=0;fillColor=#33FFFF;" vertex="1" parent="1">
          <mxGeometry x="350" y="530" width="120" height="60" as="geometry" />
        </mxCell>
        <mxCell id="MbbQXRMOaAWuGw-apZug-11" value="&lt;font style=&quot;font-size: 18px&quot;&gt;前端&lt;/font&gt;" style="text;html=1;align=center;verticalAlign=middle;resizable=0;points=[];autosize=1;strokeColor=none;" vertex="1" parent="1">
          <mxGeometry x="195" y="270" width="50" height="20" as="geometry" />
        </mxCell>
        <mxCell id="MbbQXRMOaAWuGw-apZug-12" value="&lt;span style=&quot;font-size: 18px&quot;&gt;服务层&lt;/span&gt;" style="text;html=1;align=center;verticalAlign=middle;resizable=0;points=[];autosize=1;strokeColor=none;" vertex="1" parent="1">
          <mxGeometry x="185" y="550" width="70" height="20" as="geometry" />
        </mxCell>
        <mxCell id="MbbQXRMOaAWuGw-apZug-13" value="&lt;span style=&quot;font-size: 18px&quot;&gt;网关层&lt;/span&gt;" style="text;html=1;align=center;verticalAlign=middle;resizable=0;points=[];autosize=1;strokeColor=none;" vertex="1" parent="1">
          <mxGeometry x="185" y="410" width="70" height="20" as="geometry" />
        </mxCell>
        <mxCell id="MbbQXRMOaAWuGw-apZug-19" value="" style="edgeStyle=orthogonalEdgeStyle;rounded=0;orthogonalLoop=1;jettySize=auto;html=1;" edge="1" parent="1" source="MbbQXRMOaAWuGw-apZug-14" target="MbbQXRMOaAWuGw-apZug-18">
          <mxGeometry relative="1" as="geometry" />
        </mxCell>
        <mxCell id="MbbQXRMOaAWuGw-apZug-14" value="ad-biz-alita-api" style="whiteSpace=wrap;html=1;rounded=0;fillColor=#33FFFF;" vertex="1" parent="1">
          <mxGeometry x="354" y="820" width="120" height="60" as="geometry" />
        </mxCell>
        <mxCell id="MbbQXRMOaAWuGw-apZug-16" value="" style="edgeStyle=orthogonalEdgeStyle;rounded=0;orthogonalLoop=1;jettySize=auto;html=1;" edge="1" parent="1" source="MbbQXRMOaAWuGw-apZug-15" target="MbbQXRMOaAWuGw-apZug-14">
          <mxGeometry relative="1" as="geometry" />
        </mxCell>
        <mxCell id="MbbQXRMOaAWuGw-apZug-15" value="ad-biz-frozen-api" style="whiteSpace=wrap;html=1;rounded=0;fillColor=#FFCCE6;" vertex="1" parent="1">
          <mxGeometry x="354" y="690" width="120" height="60" as="geometry" />
        </mxCell>
        <mxCell id="MbbQXRMOaAWuGw-apZug-17" value="dubbo调用" style="text;html=1;align=center;verticalAlign=middle;resizable=0;points=[];autosize=1;strokeColor=none;" vertex="1" parent="1">
          <mxGeometry x="375" y="770" width="70" height="20" as="geometry" />
        </mxCell>
        <mxCell id="MbbQXRMOaAWuGw-apZug-18" value="" style="aspect=fixed;html=1;points=[];align=center;image;fontSize=12;image=img/lib/mscae/Cache_Redis_Product.svg;fillColor=#33FFFF;" vertex="1" parent="1">
          <mxGeometry x="389" y="960" width="50" height="42" as="geometry" />
        </mxCell>
        <mxCell id="MbbQXRMOaAWuGw-apZug-20" value="sbd1-alita-cds" style="text;whiteSpace=wrap;html=1;" vertex="1" parent="1">
          <mxGeometry x="370" y="1010" width="100" height="30" as="geometry" />
        </mxCell>
        <mxCell id="MbbQXRMOaAWuGw-apZug-23" value="" style="edgeStyle=orthogonalEdgeStyle;rounded=0;orthogonalLoop=1;jettySize=auto;html=1;" edge="1" parent="1" source="MbbQXRMOaAWuGw-apZug-21" target="MbbQXRMOaAWuGw-apZug-22">
          <mxGeometry relative="1" as="geometry" />
        </mxCell>
        <mxCell id="MbbQXRMOaAWuGw-apZug-25" value="dts消息" style="edgeLabel;html=1;align=center;verticalAlign=middle;resizable=0;points=[];" vertex="1" connectable="0" parent="MbbQXRMOaAWuGw-apZug-23">
          <mxGeometry x="-0.32" y="1" relative="1" as="geometry">
            <mxPoint as="offset" />
          </mxGeometry>
        </mxCell>
        <mxCell id="MbbQXRMOaAWuGw-apZug-21" value="ad_vis" style="shape=cylinder3;whiteSpace=wrap;html=1;boundedLbl=1;backgroundOutline=1;size=15;fillColor=#FFFFFF;" vertex="1" parent="1">
          <mxGeometry x="10" y="941" width="60" height="80" as="geometry" />
        </mxCell>
        <mxCell id="MbbQXRMOaAWuGw-apZug-24" value="" style="edgeStyle=orthogonalEdgeStyle;rounded=0;orthogonalLoop=1;jettySize=auto;html=1;" edge="1" parent="1" source="MbbQXRMOaAWuGw-apZug-22">
          <mxGeometry relative="1" as="geometry">
            <mxPoint x="380" y="981" as="targetPoint" />
          </mxGeometry>
        </mxCell>
        <mxCell id="MbbQXRMOaAWuGw-apZug-26" value="更新codis" style="edgeLabel;html=1;align=center;verticalAlign=middle;resizable=0;points=[];" vertex="1" connectable="0" parent="MbbQXRMOaAWuGw-apZug-24">
          <mxGeometry x="-0.0222" y="-2" relative="1" as="geometry">
            <mxPoint as="offset" />
          </mxGeometry>
        </mxCell>
        <mxCell id="MbbQXRMOaAWuGw-apZug-22" value="ad-biz-bobbin-api" style="whiteSpace=wrap;html=1;fillColor=#00CC00;" vertex="1" parent="1">
          <mxGeometry x="170" y="951" width="120" height="60" as="geometry" />
        </mxCell>
        <mxCell id="MbbQXRMOaAWuGw-apZug-28" style="edgeStyle=orthogonalEdgeStyle;rounded=0;orthogonalLoop=1;jettySize=auto;html=1;exitX=0;exitY=0.5;exitDx=0;exitDy=0;entryX=1;entryY=0.5;entryDx=0;entryDy=0;entryPerimeter=0;" edge="1" parent="1" source="MbbQXRMOaAWuGw-apZug-27" target="MbbQXRMOaAWuGw-apZug-18">
          <mxGeometry relative="1" as="geometry" />
        </mxCell>
        <mxCell id="MbbQXRMOaAWuGw-apZug-29" value="更新codis" style="edgeLabel;html=1;align=center;verticalAlign=middle;resizable=0;points=[];" vertex="1" connectable="0" parent="MbbQXRMOaAWuGw-apZug-28">
          <mxGeometry x="-0.157" y="-2" relative="1" as="geometry">
            <mxPoint as="offset" />
          </mxGeometry>
        </mxCell>
        <mxCell id="MbbQXRMOaAWuGw-apZug-32" style="edgeStyle=orthogonalEdgeStyle;rounded=0;orthogonalLoop=1;jettySize=auto;html=1;exitX=1;exitY=0.5;exitDx=0;exitDy=0;entryX=0;entryY=0.5;entryDx=0;entryDy=0;" edge="1" parent="1" source="MbbQXRMOaAWuGw-apZug-27" target="MbbQXRMOaAWuGw-apZug-30">
          <mxGeometry relative="1" as="geometry" />
        </mxCell>
        <mxCell id="MbbQXRMOaAWuGw-apZug-27" value="ad-biz-bobbin-task" style="whiteSpace=wrap;html=1;fillColor=#00CC00;" vertex="1" parent="1">
          <mxGeometry x="560" y="951" width="120" height="60" as="geometry" />
        </mxCell>
        <mxCell id="MbbQXRMOaAWuGw-apZug-33" value="" style="edgeStyle=orthogonalEdgeStyle;rounded=0;orthogonalLoop=1;jettySize=auto;html=1;" edge="1" parent="1" source="MbbQXRMOaAWuGw-apZug-30" target="MbbQXRMOaAWuGw-apZug-31">
          <mxGeometry relative="1" as="geometry" />
        </mxCell>
        <mxCell id="MbbQXRMOaAWuGw-apZug-30" value="ad-biz-trident-api" style="whiteSpace=wrap;html=1;fillColor=#00CC00;" vertex="1" parent="1">
          <mxGeometry x="720" y="951" width="120" height="60" as="geometry" />
        </mxCell>
        <mxCell id="MbbQXRMOaAWuGw-apZug-31" value="ad_pl" style="shape=cylinder3;whiteSpace=wrap;html=1;boundedLbl=1;backgroundOutline=1;size=15;fillColor=#FFFFFF;" vertex="1" parent="1">
          <mxGeometry x="890" y="941" width="60" height="80" as="geometry" />
        </mxCell>
        <mxCell id="MbbQXRMOaAWuGw-apZug-34" value="魔方配置信息" style="text;html=1;align=center;verticalAlign=middle;resizable=0;points=[];autosize=1;strokeColor=none;" vertex="1" parent="1">
          <mxGeometry x="105" y="1050" width="90" height="20" as="geometry" />
        </mxCell>
        <mxCell id="MbbQXRMOaAWuGw-apZug-35" value="联合投放信息" style="text;html=1;align=center;verticalAlign=middle;resizable=0;points=[];autosize=1;strokeColor=none;" vertex="1" parent="1">
          <mxGeometry x="680" y="1050" width="90" height="20" as="geometry" />
        </mxCell>
      </root>
    </mxGraphModel>
  </diagram>
</mxfile>
